PathFileType	4	(X/Y/Z)	 s11c0103.trc
DataRate	CameraRate	NumFrames	NumMarkers	Units	OrigDataRate	OrigDataStartFrame	OrigNumFrames
200	200	6	48	mm	200	1501	2000
Frame#	Time	racr			lacr			c7			jug			rlel			rdr			llel			ldr			s2			lic			ric			lasi			rasi			rpsi			lpsi			rgt			lgt			rth1			rth2			rth3			rth4			rlfc			rmfc			rsh1			rsh2			rsh3			rsh4			rlmal			rcal			rtoe			rmt5			lth1			lth2			lth4			lth3			llfc			lmfc			llmal			lcal			lmt5			lsh1			lsh2			lsh3			lsh4			ltoe			SBIKE			LBIKE			RBIKE			
		X1	Y1	Z1	X2	Y2	Z2	X3	Y3	Z3	X4	Y4	Z4	X5	Y5	Z5	X6	Y6	Z6	X7	Y7	Z7	X8	Y8	Z8	X9	Y9	Z9	X10	Y10	Z10	X11	Y11	Z11	X12	Y12	Z12	X13	Y13	Z13	X14	Y14	Z14	X15	Y15	Z15	X16	Y16	Z16	X17	Y17	Z17	X18	Y18	Z18	X19	Y19	Z19	X20	Y20	Z20	X21	Y21	Z21	X22	Y22	Z22	X23	Y23	Z23	X24	Y24	Z24	X25	Y25	Z25	X26	Y26	Z26	X27	Y27	Z27	X28	Y28	Z28	X29	Y29	Z29	X30	Y30	Z30	X31	Y31	Z31	X32	Y32	Z32	X33	Y33	Z33	X34	Y34	Z34	X35	Y35	Z35	X36	Y36	Z36	X37	Y37	Z37	X38	Y38	Z38	X39	Y39	Z39	X40	Y40	Z40	X41	Y41	Z41	X42	Y42	Z42	X43	Y43	Z43	X44	Y44	Z44	X45	Y45	Z45	X46	Y46	Z46	X47	Y47	Z47	X48	Y48	Z48	
1501	7.5050	511.579943	1375.300147	-56.072628	539.564817	1393.806449	-313.922151	470.448887	1456.169390	-197.677377	469.947220	1263.195398	-211.014074	571.221527	1132.651535	76.907518	774.158579	939.414700	-27.407749	620.275726	1172.385999	-506.514872	801.483320	919.018260	-419.483293	-94.296829	1212.538540	-296.991520	149.688491	1223.043580	-462.748841	81.340205	1251.864078	-66.851202	175.707026	1159.492240	-427.050252	113.064167	1197.296981	-107.819777	-69.633874	1295.899299	-250.373901	-51.508693	1283.418047	-337.457722	66.080791	1137.254802	-42.182557	40.458106	1081.401519	-479.068747	203.911582	1098.416304	-38.672436	292.774219	1102.604285	-45.028802	371.346189	1062.598051	-50.615348	299.922743	1136.682603	-59.650038	476.737982	1035.457518	-60.623884	493.250896	1015.389134	-196.297035	424.243208	890.647855	-56.155044	406.111733	805.487392	-73.129213	348.696991	740.209129	-77.044580	432.711658	796.505873	-101.577314	270.284614	618.506853	-91.280897	210.028074	631.996377	-142.624697	438.855514	458.013410	-137.046179	365.052524	472.429791	-69.350993	99.909349	949.507045	-492.668177	147.997310	879.772550	-485.282347	183.097609	891.054214	-482.585124	154.868608	790.832906	-472.500979	202.431984	661.651802	-442.778243	217.209582	655.730234	-314.544235	45.495294	252.800428	-420.319863	-8.724907	202.254978	-381.880050	198.032169	167.490275	-446.130284	154.294550	546.380524	-461.525471	147.890603	461.675650	-446.494716	99.163213	388.403581	-441.107986	177.667041	454.929451	-423.035573	289.643769	201.619214	-376.302787	-205.435559	951.969249	-264.523399	1.083423	82.550540	-461.105784	-15.491713	81.652548	-62.715318	
1502	7.5100	512.175458	1373.610249	-56.635870	539.825976	1391.450498	-312.760419	471.357554	1453.866928	-197.020935	470.310446	1260.925307	-210.127975	571.341053	1131.945379	77.035970	774.249824	939.090421	-27.361289	619.085682	1171.367974	-506.907423	802.283011	920.351932	-421.714627	-95.244186	1214.513894	-296.332221	148.931847	1223.736535	-462.498117	80.301618	1253.165201	-66.447185	174.324332	1160.421198	-426.523856	111.663890	1197.366631	-108.630268	-69.906922	1298.330266	-249.983875	-52.168948	1285.700618	-337.000034	63.852644	1137.056359	-42.840612	39.387089	1082.999525	-479.345786	201.708793	1097.691915	-39.530199	290.748598	1100.947435	-45.529113	368.906737	1060.289388	-51.238880	298.116342	1134.869314	-60.172544	474.661423	1031.564697	-61.647538	490.080172	1011.894804	-197.630057	423.878766	885.943752	-56.568803	406.792055	800.489599	-73.172995	350.228021	734.487388	-76.609934	433.202378	791.917503	-101.479968	273.445927	611.334494	-90.826613	212.218771	622.423102	-141.489581	448.140647	458.470315	-136.592975	373.840927	469.393758	-68.755440	101.091045	951.767374	-492.633299	150.507319	882.986055	-485.812304	185.381896	894.995034	-483.426407	159.235881	794.095152	-473.764092	208.193731	665.540447	-444.113176	223.580292	659.960689	-315.542677	39.355485	261.773472	-420.081893	-15.710836	213.072507	-382.028812	189.587933	171.979412	-446.301882	156.563835	551.619001	-462.701382	147.882304	467.144191	-447.214830	97.133873	395.307615	-441.508896	177.566174	459.676224	-424.010575	282.240337	202.823227	-376.406041	-205.432795	951.967845	-264.486857	1.059457	82.569850	-461.125320	-15.498182	81.644601	-62.707684	
1503	7.5150	512.478246	1371.451743	-57.612001	540.005045	1388.623159	-311.674303	472.247397	1451.561442	-196.608508	469.740226	1258.650053	-209.279688	571.595599	1131.119795	77.222629	774.408766	938.837090	-27.282122	617.534998	1169.794688	-507.369369	801.862736	920.471227	-422.020813	-96.060905	1216.584560	-295.923640	147.697302	1224.833095	-462.192266	79.064807	1254.222070	-65.834564	172.832581	1161.558856	-426.360186	110.931740	1197.640367	-109.643612	-70.323494	1300.767940	-248.611752	-52.833893	1287.891771	-336.357944	61.505411	1136.605963	-43.395135	38.271180	1084.491382	-479.560245	199.661688	1096.360386	-40.141524	288.646804	1098.572709	-46.081931	366.262634	1057.020559	-51.802263	296.319592	1132.373466	-60.718366	473.585149	1026.575970	-63.320776	486.877513	1007.075621	-198.905373	423.320237	880.132113	-56.763916	406.962298	794.612098	-73.012963	351.267954	727.718994	-76.175790	433.528436	786.113274	-101.383677	276.336013	603.057180	-90.007059	213.612285	611.966400	-140.588922	456.829908	458.642083	-136.156401	382.418124	465.853288	-67.746030	102.741686	954.108603	-492.505451	153.616277	886.387344	-486.183015	188.214306	898.996027	-483.816194	164.236932	797.547889	-474.957958	214.677933	669.626852	-445.470480	230.521905	664.524585	-317.151310	34.083470	271.733651	-419.646628	-22.423563	225.043493	-382.420661	181.490128	176.994939	-446.436835	159.486978	557.337382	-463.914521	148.552649	473.262501	-448.117244	95.905333	402.796897	-441.910822	178.204549	465.156275	-425.054741	275.211499	204.288538	-376.507514	-205.452225	951.911161	-264.349406	1.066392	82.567947	-461.114652	-15.503939	81.626310	-62.696201	
1504	7.5200	513.066849	1369.391110	-58.220779	539.570044	1385.122300	-310.172689	473.000644	1449.199503	-196.403803	468.609030	1256.270641	-207.499540	572.027938	1130.212380	77.498231	774.612215	938.575545	-27.195542	615.679304	1167.903199	-508.059499	801.402656	920.635357	-422.506659	-96.776948	1218.533820	-295.463207	146.211763	1226.099011	-462.149254	77.756520	1255.193392	-65.082236	170.538343	1162.456192	-425.529429	109.770587	1197.867683	-109.045284	-69.210387	1302.536624	-248.757301	-53.647488	1290.173427	-335.538430	59.254490	1136.014350	-43.775686	37.195818	1085.905022	-479.712628	197.539416	1094.903711	-40.652991	286.463473	1095.473027	-46.669179	363.680267	1053.178281	-52.362887	294.534181	1129.291926	-61.147746	471.832912	1020.753059	-64.647870	483.327047	1001.002133	-200.645764	422.525879	873.186807	-56.848931	407.020459	787.348680	-72.761318	352.087008	719.981640	-75.587353	433.452553	779.088590	-101.402454	279.000166	593.849081	-89.088341	215.007942	600.061788	-138.598534	465.124633	458.552068	-135.293540	390.458820	461.917799	-66.654621	104.775028	956.462198	-492.316442	157.196704	889.823624	-486.475177	191.477575	903.243444	-483.869345	169.763939	801.207699	-476.057912	221.756296	674.094358	-446.841853	238.218084	669.051952	-318.790018	29.660100	282.508801	-419.557366	-28.183580	237.913103	-382.702066	173.988995	182.429713	-446.509040	163.134928	563.608287	-465.002980	149.850900	479.929842	-448.716330	95.403918	410.918468	-442.326932	179.573380	471.131121	-426.160984	268.579435	205.963610	-376.538997	-205.457754	951.884799	-264.213168	1.063921	82.593298	-461.099425	-15.507397	81.620592	-62.692763	
1505	7.5250	513.735128	1367.104262	-58.829287	539.515411	1381.613744	-309.431226	473.730873	1446.688734	-196.187263	467.905788	1253.783611	-206.184100	572.611886	1129.273536	77.857436	774.820682	938.238218	-26.950752	613.633578	1165.816299	-508.882720	800.906227	920.853361	-422.908672	-97.477794	1220.329772	-294.834885	144.519545	1227.624296	-462.265757	76.758151	1255.854301	-64.545113	168.607385	1163.230799	-425.846387	108.702143	1197.943034	-108.061494	-69.300715	1304.465545	-247.909484	-54.256572	1292.148631	-334.539172	57.145743	1135.100434	-44.019760	36.207445	1087.222282	-479.814658	195.424408	1091.413816	-42.254546	284.353764	1091.634473	-47.197890	360.989981	1048.617424	-52.943206	292.805978	1125.541771	-61.482146	469.702528	1014.176428	-65.792521	480.084591	993.801132	-201.500503	421.478761	865.261092	-56.704908	406.826960	779.235822	-72.474039	352.584912	711.140806	-74.866374	433.221859	771.253633	-101.142171	281.138868	584.021813	-88.015357	215.887305	587.287483	-137.128863	472.797527	457.775873	-134.719944	398.163994	457.128031	-65.585196	107.092371	958.796717	-492.123150	161.156484	893.397083	-486.522723	195.039885	907.614189	-483.538364	175.854115	805.007124	-476.935948	229.374131	678.892398	-448.104612	246.448239	673.839625	-320.404611	26.170845	293.893708	-419.826376	-33.115574	251.571807	-382.960444	166.783749	188.481544	-446.615567	167.467142	570.131842	-466.064517	152.012505	487.084642	-449.513755	95.673111	419.519533	-442.722045	181.331511	477.018805	-426.371557	262.308639	207.923612	-376.505534	-205.440602	951.911998	-264.137365	1.059943	82.599763	-461.058018	-15.507266	81.596470	-62.671479	
1506	7.5300	514.721921	1364.471341	-59.409855	539.371242	1377.772522	-308.853230	474.297974	1444.214601	-196.118689	466.988313	1251.331884	-204.568401	573.388847	1128.384363	78.273370	774.968928	937.917096	-26.733453	611.339543	1163.431263	-509.981768	800.112984	920.458539	-422.916866	-98.218352	1221.995457	-294.049018	142.508416	1229.339426	-462.299194	75.807560	1256.348509	-63.777182	166.704786	1163.978025	-426.619058	107.758322	1197.726301	-106.698144	-69.401310	1305.962207	-246.848116	-54.915338	1293.907959	-333.283153	55.124322	1133.827382	-44.251370	35.247947	1088.401853	-479.818419	193.598487	1089.509377	-42.566138	282.255443	1087.402800	-47.631582	358.463390	1043.329835	-53.946061	291.197821	1121.169027	-61.695304	467.319776	1006.619377	-67.817263	477.164018	985.707981	-202.553050	420.263206	856.178140	-56.389554	406.286707	770.123156	-72.198813	352.766929	701.556977	-74.091806	432.388225	762.452157	-101.224446	282.857684	573.207261	-87.059641	216.707818	573.408422	-135.380746	479.575668	456.571365	-133.867634	405.158958	451.761258	-64.427442	109.649731	961.124983	-491.897421	165.463367	897.109965	-486.431496	198.868692	912.244907	-482.983046	182.404851	809.117309	-477.638870	237.467369	684.023532	-449.231108	255.317091	678.770557	-321.833895	23.604793	305.823410	-420.226246	-37.130801	265.848718	-383.305446	160.173316	194.885170	-446.721706	172.445027	577.107000	-467.085482	154.688563	494.673325	-450.245468	96.639589	428.531453	-443.176310	184.177560	484.402735	-427.834502	256.279818	210.183364	-376.552722	-205.407957	951.908948	-264.033050	1.071183	82.608730	-461.077386	-15.491077	81.592405	-62.671747	
